<svg width="16" height="16" viewBox="0 0 16 16" fill="none" xmlns="http://www.w3.org/2000/svg">
<path fill-rule="evenodd" clip-rule="evenodd" d="M8 15C11.866 15 15 11.866 15 8C15 4.134 11.866 1 8 1C4.134 1 1 4.134 1 8C1 11.866 4.134 15 8 15ZM11.3078 6.49529C11.564 6.23901 11.564 5.82349 11.3078 5.56721C11.0515 5.31093 10.636 5.31093 10.3797 5.56721L6.90625 9.04067L5.62029 7.75471C5.36401 7.49843 4.94849 7.49843 4.69221 7.75471C4.43593 8.01099 4.43593 8.42651 4.69221 8.68279L6.44221 10.4328C6.69849 10.689 7.11401 10.689 7.37029 10.4328L11.3078 6.49529Z" fill="#57606A"/>
</svg>
