<svg width="16" height="16" viewBox="0 0 16 16" fill="none" xmlns="http://www.w3.org/2000/svg">
<g clip-path="url(#clip0_204_199786)">
<path fill-rule="evenodd" clip-rule="evenodd" d="M2.3125 8C2.3125 4.85888 4.85888 2.3125 8 2.3125C11.1412 2.3125 13.6875 4.85888 13.6875 8C13.6875 11.1412 11.1412 13.6875 8 13.6875C4.85888 13.6875 2.3125 11.1412 2.3125 8ZM8 1C4.134 1 1 4.134 1 8C1 11.866 4.134 15 8 15C11.866 15 15 11.866 15 8C15 4.134 11.866 1 8 1ZM10.8703 6.05779C11.1265 5.80151 11.1265 5.38599 10.8703 5.12971C10.614 4.87343 10.1985 4.87343 9.94224 5.12971L5.12971 9.94224C4.87343 10.1985 4.87343 10.614 5.12971 10.8703C5.38599 11.1265 5.80151 11.1265 6.05779 10.8703L10.8703 6.05779Z" fill="#8B949E"/>
</g>
<defs>
<clipPath id="clip0_204_199786">
<rect width="14" height="14" fill="white" transform="translate(1 1)"/>
</clipPath>
</defs>
</svg>
