<svg width="15" height="15" viewBox="0 0 15 15" fill="none" xmlns="http://www.w3.org/2000/svg">
<g clip-path="url(#clip0_204_199790)">
<path fill-rule="evenodd" clip-rule="evenodd" d="M6.24595 1.85027C6.7816 0.848089 8.21829 0.848087 8.75394 1.85027L13.6953 11.0953C14.2015 12.0425 13.5152 13.1875 12.4413 13.1875H2.55861C1.48465 13.1875 0.798371 12.0425 1.30461 11.0953L6.24595 1.85027ZM7.49994 5.06246C7.83649 5.06246 8.10932 5.33529 8.10932 5.67183V7.70308C8.10932 8.03963 7.83649 8.31246 7.49994 8.31246C7.1634 8.31246 6.89057 8.03963 6.89057 7.70308V5.67183C6.89057 5.33529 7.1634 5.06246 7.49994 5.06246ZM8.31244 9.93746C8.31244 10.3862 7.94868 10.75 7.49994 10.75C7.05121 10.75 6.68744 10.3862 6.68744 9.93746C6.68744 9.48873 7.05121 9.12496 7.49994 9.12496C7.94868 9.12496 8.31244 9.48873 8.31244 9.93746Z" fill="#8B949E"/>
</g>
<defs>
<clipPath id="clip0_204_199790">
<rect width="13" height="13" fill="white" transform="translate(1 1)"/>
</clipPath>
</defs>
</svg>
