<svg width="16" height="16" viewBox="0 0 16 16" fill="none" xmlns="http://www.w3.org/2000/svg">
<g clip-path="url(#clip0_327_302367)">
<path fill-rule="evenodd" clip-rule="evenodd" d="M2 3.3125C2 2.58763 2.58763 2 3.3125 2H5.9375C6.66237 2 7.25 2.58763 7.25 3.3125V5.9375C7.25 6.66237 6.66237 7.25 5.9375 7.25H5V10.25C5 10.6642 5.33579 11 5.75 11H8.75V10.0625C8.75 9.33763 9.33763 8.75 10.0625 8.75H12.6875C13.4124 8.75 14 9.33763 14 10.0625V12.6875C14 13.4124 13.4124 14 12.6875 14H10.0625C9.33763 14 8.75 13.4124 8.75 12.6875V12.125H5.75C4.71447 12.125 3.875 11.2855 3.875 10.25V7.25H3.3125C2.58763 7.25 2 6.66237 2 5.9375V3.3125ZM3.3125 3.125C3.20895 3.125 3.125 3.20895 3.125 3.3125V5.9375C3.125 6.04105 3.20895 6.125 3.3125 6.125H5.9375C6.04105 6.125 6.125 6.04105 6.125 5.9375V3.3125C6.125 3.20895 6.04105 3.125 5.9375 3.125H3.3125ZM10.0625 9.875C9.95893 9.875 9.875 9.95893 9.875 10.0625V12.6875C9.875 12.7911 9.95893 12.875 10.0625 12.875H12.6875C12.7911 12.875 12.875 12.7911 12.875 12.6875V10.0625C12.875 9.95893 12.7911 9.875 12.6875 9.875H10.0625Z" fill="#57606A"/>
</g>
<defs>
<clipPath id="clip0_327_302367">
<rect width="12" height="12" fill="white" transform="translate(2 2)"/>
</clipPath>
</defs>
</svg>
