<svg width="16" height="16" viewBox="0 0 16 16" fill="none" xmlns="http://www.w3.org/2000/svg">
<path fill-rule="evenodd" clip-rule="evenodd" d="M9.99976 3H11.9998H12.9998V4H11.9998V13L10.9998 14H3.99976L2.99976 13V4H1.99976V3H4.99976V2C4.99976 1.73478 5.10507 1.48038 5.2926 1.29285C5.48014 1.10531 5.73454 1 5.99976 1H8.99976C9.26497 1 9.51937 1.10531 9.70691 1.29285C9.89445 1.48038 9.99976 1.73478 9.99976 2V3ZM8.99976 2H5.99976V3H8.99976V2ZM3.99976 13H10.9998V4H3.99976V13ZM5.99976 5H4.99976V12H5.99976V5ZM6.99976 5H7.99976V12H6.99976V5ZM8.99976 5H9.99976V12H8.99976V5Z" fill="#424242"/>
</svg>
