<svg width="16" height="16" viewBox="0 0 16 16" fill="none" xmlns="http://www.w3.org/2000/svg">
<g clip-path="url(#clip0_204_199643)">
<path fill-rule="evenodd" clip-rule="evenodd" d="M3.05025 12.9497C0.316583 10.2161 0.316583 5.78392 3.05025 3.05025C5.78392 0.316583 10.2161 0.316583 12.9497 3.05025C15.6834 5.78392 15.6834 10.2161 12.9497 12.9497C10.2161 15.6834 5.78392 15.6834 3.05025 12.9497ZM6.27653 5.34846C6.02025 5.09218 5.60474 5.09218 5.34845 5.34846C5.09217 5.60474 5.09217 6.02026 5.34845 6.27654L7.07192 8L5.34845 9.72346C5.09217 9.97974 5.09217 10.3953 5.34845 10.6515C5.60474 10.9078 6.02025 10.9078 6.27653 10.6515L7.99999 8.92808L9.72345 10.6515C9.97973 10.9078 10.3952 10.9078 10.6515 10.6515C10.9078 10.3953 10.9078 9.97974 10.6515 9.72346L8.92807 8L10.6515 6.27654C10.9078 6.02026 10.9078 5.60475 10.6515 5.34847C10.3953 5.09219 9.97973 5.09219 9.72345 5.34847L7.99999 7.07192L6.27653 5.34846Z" fill="#CF222E"/>
</g>
<defs>
<clipPath id="clip0_204_199643">
<rect width="14" height="14" fill="white" transform="translate(1 1)"/>
</clipPath>
</defs>
</svg>
