<svg width="16" height="16" viewBox="0 0 16 16" fill="none" xmlns="http://www.w3.org/2000/svg">
<path opacity="0.5" fill-rule="evenodd" clip-rule="evenodd" d="M8 15C11.866 15 15 11.866 15 8C15 4.13401 11.866 1 8 1C4.13401 1 1 4.13401 1 8C1 11.866 4.13401 15 8 15ZM8 13.25C10.8995 13.25 13.25 10.8995 13.25 8C13.25 5.1005 10.8995 2.75 8 2.75C5.1005 2.75 2.75 5.1005 2.75 8C2.75 10.8995 5.1005 13.25 8 13.25Z" fill="#BF8700"/>
<path fill-rule="evenodd" clip-rule="evenodd" d="M15 8C15 8.29633 14.9816 8.58836 14.9458 8.875H13.1774C13.2252 8.59044 13.25 8.29812 13.25 8C13.25 5.1005 10.8995 2.75 8 2.75V1C11.866 1 15 4.13401 15 8Z" fill="#BF8700">
  <animateTransform attributeType="xml" attributeName="transform" type="rotate" from="0 8 8" to="360 8 8" dur="2s" additive="sum" repeatCount="indefinite" />
</path>
<circle cx="8" cy="8" r="3.5" fill="#BF8700"/>
</svg>
