<svg width="16" height="16" viewBox="0 0 16 16" fill="none" xmlns="http://www.w3.org/2000/svg">
<path fill-rule="evenodd" clip-rule="evenodd" d="M4.91096 1.19221C5.03403 1.06914 5.20095 1 5.375 1H10.625C10.799 1 10.966 1.06914 11.089 1.19221L14.8078 4.91096C14.9309 5.03403 15 5.20095 15 5.375V10.625C15 10.799 14.9309 10.966 14.8078 11.089L11.089 14.8078C10.966 14.9309 10.799 15 10.625 15H5.375C5.20095 15 5.03403 14.9309 4.91096 14.8078L1.19221 11.089C1.06914 10.966 1 10.799 1 10.625V5.375C1 5.20095 1.06914 5.03403 1.19221 4.91096L4.91096 1.19221ZM5.64683 2.3125L2.3125 5.64683V10.3531L5.64683 13.6875H10.3531L13.6875 10.3531V5.64683L10.3531 2.3125H5.64683ZM8 4.5C8.36243 4.5 8.65625 4.79382 8.65625 5.15625V8.21875C8.65625 8.58118 8.36243 8.875 8 8.875C7.63757 8.875 7.34375 8.58118 7.34375 8.21875V5.15625C7.34375 4.79382 7.63757 4.5 8 4.5ZM8 11.5C8.48325 11.5 8.875 11.1083 8.875 10.625C8.875 10.1417 8.48325 9.75 8 9.75C7.51676 9.75 7.125 10.1417 7.125 10.625C7.125 11.1083 7.51676 11.5 8 11.5Z" fill="#8B949E"/>
</svg>
