<svg width="18" height="18" viewBox="0 0 18 18" fill="none" xmlns="http://www.w3.org/2000/svg">
<path fill-rule="evenodd" clip-rule="evenodd" d="M3.3125 9C3.3125 5.85888 5.85888 3.3125 9 3.3125C12.1412 3.3125 14.6875 5.85888 14.6875 9C14.6875 12.1412 12.1412 14.6875 9 14.6875C5.85888 14.6875 3.3125 12.1412 3.3125 9ZM9 2C5.134 2 2 5.134 2 9C2 12.866 5.134 16 9 16C12.866 16 16 12.866 16 9C16 5.134 12.866 2 9 2ZM11.8703 7.05779C12.1265 6.80151 12.1265 6.38599 11.8703 6.12971C11.614 5.87343 11.1985 5.87343 10.9422 6.12971L6.12971 10.9422C5.87343 11.1985 5.87343 11.614 6.12971 11.8703C6.38599 12.1265 6.80151 12.1265 7.05779 11.8703L11.8703 7.05779Z" fill="#8B949E"/>
</svg>
