<svg width="16" height="16" viewBox="0 0 16 16" fill="none" xmlns="http://www.w3.org/2000/svg">
<path fill-rule="evenodd" clip-rule="evenodd" d="M8.19701 2.92607C8.11286 2.77212 7.88714 2.77212 7.80299 2.92608L2.36884 12.8679C2.28931 13.0135 2.39713 13.1894 2.56585 13.1894H13.4341C13.6029 13.1894 13.7107 13.0135 13.6311 12.8679L8.19701 2.92607ZM6.62094 2.30829C7.21002 1.23057 8.79 1.23057 9.37907 2.30829L14.8132 12.2502C15.37 13.2687 14.6152 14.5 13.4341 14.5H2.56585C1.38478 14.5 0.630055 13.2687 1.18679 12.2502L6.62094 2.30829ZM8.89354 11.005C8.89354 11.4876 8.4935 11.8788 8.00001 11.8788C7.50653 11.8788 7.10647 11.4876 7.10647 11.005C7.10647 10.5225 7.50653 10.1313 8.00001 10.1313C8.4935 10.1313 8.89354 10.5225 8.89354 11.005ZM8.67016 6.41791C8.67016 6.05599 8.37012 5.7626 8.00001 5.7626C7.6299 5.7626 7.32986 6.05599 7.32986 6.41791V8.60226C7.32986 8.96417 7.6299 9.25756 8.00001 9.25756C8.37012 9.25756 8.67016 8.96417 8.67016 8.60226V6.41791Z" fill="#D29922"/>
</svg>
